# xmcd
#
# Track frame offsets: 
#        150
#        13155
#        23761
#        35673
#        46179
#        56862
#        69629
#        81276
#        95814
#        107404
#        120153
#        130901
#        144221
#        156815
#        170857
#        182814
#        192469
#        202042
#        214924
#        226232
#        238563
#
# Disc length: 3335 seconds
#
# Revision: 0
# Processed by: cddbd v1.5.2PL0 Copyright (c) Steve Scherf et al.
# Submitted via: ExactAudioCopyFreeDBPlugin 1.0
#
DISCID=2c0d0515
DTITLE=Various Artist - Country and Western Klassiks
DYEAR=1900
DGENRE=Country
TTITLE0=Hank Williams - Jambalaya
TTITLE1=Gene Autry - Don't Fence Me In
TTITLE2=Johnny Bond - Sick, Sober And Sorry
TTITLE3=Hank Thompson - Whoa Sailor
TTITLE4=Spade Cooley - Indian Summer
TTITLE5=Merle Travis - Sixteen Tons
TTITLE6=Tommy Duncan - Chattanooga Shoe Shine Boy
TTITLE7=Gene Autry - South Of The Border
TTITLE8=Tennessee Ernie Ford - Shotgun Boogie
TTITLE9=Johnny Bond - Mean Mama Boogie
TTITLE10=Hank Williams - Moanin' The Blues
TTITLE11=Carl Smith - I Overlooked An Orchid
TTITLE12=Hank Williams - I Tust Don't Like This Kind Of Living
TTITLE13=Tennessee Ernie Ford - Mr. And Mississippi
TTITLE14=Jesse James - Darling I Don't Understand
TTITLE15=Tex Williams - Drop Dead
TTITLE16=Tennessee Ernie Ford - Anticipation Blues
TTITLE17=Johnnie Lee Wills - Rag Mop
TTITLE18=Tommy Scott - Gonna Paint The Town Red
TTITLE19=Floyd Tillman - Slippin' Around
TTITLE20=Eddie Kirk - Candy Kisses
EXTD=
EXTT0=
EXTT1=
EXTT2=
EXTT3=
EXTT4=
EXTT5=
EXTT6=
EXTT7=
EXTT8=
EXTT9=
EXTT10=
EXTT11=
EXTT12=
EXTT13=
EXTT14=
EXTT15=
EXTT16=
EXTT17=
EXTT18=
EXTT19=
EXTT20=
PLAYORDER=
